<?xml version="1.0" encoding="UTF-8"?>
<svg xmlns="http://www.w3.org/2000/svg" xmlns:xlink="http://www.w3.org/1999/xlink" width="1012.5pt" height="487.499991pt" viewBox="0 0 1012.5 487.499991" version="1.2">
<defs>
<clipPath id="clip1">
  <path d="M 0.269531 0 L 1011.730469 0 L 1011.730469 487 L 0.269531 487 Z M 0.269531 0 "/>
</clipPath>
<clipPath id="clip2">
  <path d="M 232 42 L 802.445312 42 L 802.445312 487 L 232 487 Z M 232 42 "/>
</clipPath>
<clipPath id="clip3">
  <path d="M 673.351562 105.324219 C 668.515625 105.324219 663.925781 105.566406 659.332031 106.046875 C 625.980469 109.914062 592.386719 101.214844 566.285156 80.199219 C 547.433594 65.222656 523.503906 56.042969 497.402344 56.042969 C 481.453125 56.042969 465.984375 59.425781 452.207031 65.707031 C 436.738281 72.710938 418.613281 71.019531 404.59375 61.601562 C 385.261719 48.554688 361.816406 41.550781 336.679688 43 C 280.125 46.382812 232.515625 92.519531 232.515625 149.046875 C 232.515625 214.753906 274.808594 243.015625 307.195312 255.09375 C 326.773438 262.34375 338.613281 282.632812 335.714844 303.410156 C 333.78125 317.660156 332.332031 332.878906 333.054688 344.714844 C 337.40625 421.292969 399.761719 483.132812 476.617188 487 C 543.324219 490.382812 600.84375 450.523438 624.53125 393.269531 C 632.746094 373.460938 652.324219 360.902344 673.832031 361.144531 L 674.316406 361.144531 C 745.132812 361.144531 802.410156 303.890625 802.167969 233.113281 C 801.6875 162.816406 743.679688 104.839844 673.351562 105.324219 Z M 673.351562 105.324219 "/>
</clipPath>
<linearGradient id="linear0" gradientUnits="userSpaceOnUse" x1="-0.00000499592" y1="109.709999" x2="235.799988" y2="109.709999" gradientTransform="matrix(2.416862,0,0,2.415672,232.51462,0)">
<stop offset="0" style="stop-color:rgb(65.098572%,65.098572%,65.098572%);stop-opacity:1;"/>
<stop offset="0.015625" style="stop-color:rgb(65.254211%,65.254211%,65.254211%);stop-opacity:1;"/>
<stop offset="0.03125" style="stop-color:rgb(65.567017%,65.567017%,65.567017%);stop-opacity:1;"/>
<stop offset="0.046875" style="stop-color:rgb(65.879822%,65.879822%,65.879822%);stop-opacity:1;"/>
<stop offset="0.0625" style="stop-color:rgb(66.192627%,66.192627%,66.192627%);stop-opacity:1;"/>
<stop offset="0.078125" style="stop-color:rgb(66.505432%,66.505432%,66.505432%);stop-opacity:1;"/>
<stop offset="0.09375" style="stop-color:rgb(66.818237%,66.818237%,66.818237%);stop-opacity:1;"/>
<stop offset="0.109375" style="stop-color:rgb(67.131042%,67.131042%,67.131042%);stop-opacity:1;"/>
<stop offset="0.125" style="stop-color:rgb(67.443848%,67.443848%,67.443848%);stop-opacity:1;"/>
<stop offset="0.140625" style="stop-color:rgb(67.756653%,67.756653%,67.756653%);stop-opacity:1;"/>
<stop offset="0.15625" style="stop-color:rgb(68.069458%,68.069458%,68.069458%);stop-opacity:1;"/>
<stop offset="0.171875" style="stop-color:rgb(68.382263%,68.382263%,68.382263%);stop-opacity:1;"/>
<stop offset="0.1875" style="stop-color:rgb(68.695068%,68.695068%,68.695068%);stop-opacity:1;"/>
<stop offset="0.203125" style="stop-color:rgb(69.007874%,69.007874%,69.007874%);stop-opacity:1;"/>
<stop offset="0.21875" style="stop-color:rgb(69.320679%,69.320679%,69.320679%);stop-opacity:1;"/>
<stop offset="0.234375" style="stop-color:rgb(69.633484%,69.633484%,69.633484%);stop-opacity:1;"/>
<stop offset="0.25" style="stop-color:rgb(69.946289%,69.946289%,69.946289%);stop-opacity:1;"/>
<stop offset="0.265625" style="stop-color:rgb(70.259094%,70.259094%,70.259094%);stop-opacity:1;"/>
<stop offset="0.28125" style="stop-color:rgb(70.571899%,70.571899%,70.571899%);stop-opacity:1;"/>
<stop offset="0.296875" style="stop-color:rgb(70.884705%,70.884705%,70.884705%);stop-opacity:1;"/>
<stop offset="0.3125" style="stop-color:rgb(71.19751%,71.19751%,71.19751%);stop-opacity:1;"/>
<stop offset="0.328125" style="stop-color:rgb(71.510315%,71.510315%,71.510315%);stop-opacity:1;"/>
<stop offset="0.34375" style="stop-color:rgb(71.82312%,71.82312%,71.82312%);stop-opacity:1;"/>
<stop offset="0.359375" style="stop-color:rgb(72.135925%,72.135925%,72.135925%);stop-opacity:1;"/>
<stop offset="0.375" style="stop-color:rgb(72.44873%,72.44873%,72.44873%);stop-opacity:1;"/>
<stop offset="0.390625" style="stop-color:rgb(72.761536%,72.761536%,72.761536%);stop-opacity:1;"/>
<stop offset="0.40625" style="stop-color:rgb(73.074341%,73.074341%,73.074341%);stop-opacity:1;"/>
<stop offset="0.421875" style="stop-color:rgb(73.387146%,73.387146%,73.387146%);stop-opacity:1;"/>
<stop offset="0.4375" style="stop-color:rgb(73.699951%,73.699951%,73.699951%);stop-opacity:1;"/>
<stop offset="0.453125" style="stop-color:rgb(74.012756%,74.012756%,74.012756%);stop-opacity:1;"/>
<stop offset="0.46875" style="stop-color:rgb(74.325562%,74.325562%,74.325562%);stop-opacity:1;"/>
<stop offset="0.484375" style="stop-color:rgb(74.638367%,74.638367%,74.638367%);stop-opacity:1;"/>
<stop offset="0.5" style="stop-color:rgb(74.951172%,74.951172%,74.951172%);stop-opacity:1;"/>
<stop offset="0.515625" style="stop-color:rgb(75.263977%,75.263977%,75.263977%);stop-opacity:1;"/>
<stop offset="0.53125" style="stop-color:rgb(75.576782%,75.576782%,75.576782%);stop-opacity:1;"/>
<stop offset="0.546875" style="stop-color:rgb(75.889587%,75.889587%,75.889587%);stop-opacity:1;"/>
<stop offset="0.5625" style="stop-color:rgb(76.202393%,76.202393%,76.202393%);stop-opacity:1;"/>
<stop offset="0.578125" style="stop-color:rgb(76.515198%,76.515198%,76.515198%);stop-opacity:1;"/>
<stop offset="0.59375" style="stop-color:rgb(76.828003%,76.828003%,76.828003%);stop-opacity:1;"/>
<stop offset="0.609375" style="stop-color:rgb(77.140808%,77.140808%,77.140808%);stop-opacity:1;"/>
<stop offset="0.625" style="stop-color:rgb(77.453613%,77.453613%,77.453613%);stop-opacity:1;"/>
<stop offset="0.640625" style="stop-color:rgb(77.766418%,77.766418%,77.766418%);stop-opacity:1;"/>
<stop offset="0.65625" style="stop-color:rgb(78.079224%,78.079224%,78.079224%);stop-opacity:1;"/>
<stop offset="0.671875" style="stop-color:rgb(78.392029%,78.392029%,78.392029%);stop-opacity:1;"/>
<stop offset="0.6875" style="stop-color:rgb(78.704834%,78.704834%,78.704834%);stop-opacity:1;"/>
<stop offset="0.703125" style="stop-color:rgb(79.017639%,79.017639%,79.017639%);stop-opacity:1;"/>
<stop offset="0.71875" style="stop-color:rgb(79.330444%,79.330444%,79.330444%);stop-opacity:1;"/>
<stop offset="0.734375" style="stop-color:rgb(79.64325%,79.64325%,79.64325%);stop-opacity:1;"/>
<stop offset="0.75" style="stop-color:rgb(79.956055%,79.956055%,79.956055%);stop-opacity:1;"/>
<stop offset="0.765625" style="stop-color:rgb(80.26886%,80.26886%,80.26886%);stop-opacity:1;"/>
<stop offset="0.78125" style="stop-color:rgb(80.581665%,80.581665%,80.581665%);stop-opacity:1;"/>
<stop offset="0.796875" style="stop-color:rgb(80.89447%,80.89447%,80.89447%);stop-opacity:1;"/>
<stop offset="0.8125" style="stop-color:rgb(81.207275%,81.207275%,81.207275%);stop-opacity:1;"/>
<stop offset="0.828125" style="stop-color:rgb(81.520081%,81.520081%,81.520081%);stop-opacity:1;"/>
<stop offset="0.84375" style="stop-color:rgb(81.832886%,81.832886%,81.832886%);stop-opacity:1;"/>
<stop offset="0.859375" style="stop-color:rgb(82.145691%,82.145691%,82.145691%);stop-opacity:1;"/>
<stop offset="0.875" style="stop-color:rgb(82.458496%,82.458496%,82.458496%);stop-opacity:1;"/>
<stop offset="0.890625" style="stop-color:rgb(82.771301%,82.771301%,82.771301%);stop-opacity:1;"/>
<stop offset="0.90625" style="stop-color:rgb(83.084106%,83.084106%,83.084106%);stop-opacity:1;"/>
<stop offset="0.921875" style="stop-color:rgb(83.396912%,83.396912%,83.396912%);stop-opacity:1;"/>
<stop offset="0.9375" style="stop-color:rgb(83.709717%,83.709717%,83.709717%);stop-opacity:1;"/>
<stop offset="0.953125" style="stop-color:rgb(84.022522%,84.022522%,84.022522%);stop-opacity:1;"/>
<stop offset="0.96875" style="stop-color:rgb(84.335327%,84.335327%,84.335327%);stop-opacity:1;"/>
<stop offset="0.984375" style="stop-color:rgb(84.648132%,84.648132%,84.648132%);stop-opacity:1;"/>
<stop offset="1" style="stop-color:rgb(84.951782%,84.951782%,84.951782%);stop-opacity:1;"/>
</linearGradient>
<clipPath id="clip4">
  <path d="M 595 0 L 676 0 L 676 80 L 595 80 Z M 595 0 "/>
</clipPath>
<clipPath id="clip5">
  <path d="M 675.285156 39.859375 C 675.285156 41.164062 675.21875 42.464844 675.09375 43.765625 C 674.964844 45.066406 674.773438 46.355469 674.515625 47.632812 C 674.261719 48.914062 673.945312 50.179688 673.566406 51.429688 C 673.1875 52.679688 672.746094 53.90625 672.25 55.113281 C 671.75 56.316406 671.191406 57.496094 670.574219 58.648438 C 669.960938 59.800781 669.289062 60.917969 668.5625 62.003906 C 667.835938 63.089844 667.058594 64.136719 666.230469 65.144531 C 665.402344 66.152344 664.527344 67.121094 663.605469 68.042969 C 662.679688 68.964844 661.714844 69.839844 660.703125 70.667969 C 659.695312 71.496094 658.648438 72.273438 657.5625 73 C 656.476562 73.726562 655.355469 74.394531 654.203125 75.011719 C 653.050781 75.625 651.871094 76.183594 650.667969 76.683594 C 649.460938 77.183594 648.230469 77.621094 646.980469 78 C 645.730469 78.378906 644.464844 78.695312 643.183594 78.953125 C 641.90625 79.207031 640.613281 79.398438 639.3125 79.523438 C 638.015625 79.652344 636.710938 79.71875 635.40625 79.71875 C 634.097656 79.71875 632.796875 79.652344 631.496094 79.523438 C 630.195312 79.398438 628.90625 79.207031 627.625 78.953125 C 626.34375 78.695312 625.078125 78.378906 623.828125 78 C 622.578125 77.621094 621.351562 77.183594 620.144531 76.683594 C 618.9375 76.183594 617.757812 75.625 616.605469 75.011719 C 615.457031 74.394531 614.335938 73.726562 613.25 73 C 612.164062 72.273438 611.117188 71.496094 610.105469 70.667969 C 609.097656 69.839844 608.132812 68.964844 607.207031 68.042969 C 606.285156 67.121094 605.40625 66.152344 604.578125 65.144531 C 603.75 64.136719 602.972656 63.089844 602.246094 62.003906 C 601.523438 60.917969 600.851562 59.800781 600.234375 58.648438 C 599.621094 57.496094 599.0625 56.316406 598.5625 55.113281 C 598.0625 53.90625 597.625 52.679688 597.246094 51.429688 C 596.867188 50.179688 596.546875 48.914062 596.292969 47.632812 C 596.039062 46.355469 595.847656 45.066406 595.71875 43.765625 C 595.589844 42.464844 595.527344 41.164062 595.527344 39.859375 C 595.527344 38.554688 595.589844 37.25 595.71875 35.953125 C 595.847656 34.652344 596.039062 33.363281 596.292969 32.082031 C 596.546875 30.800781 596.867188 29.539062 597.246094 28.289062 C 597.625 27.039062 598.0625 25.8125 598.5625 24.605469 C 599.0625 23.398438 599.621094 22.21875 600.234375 21.070312 C 600.851562 19.917969 601.523438 18.800781 602.246094 17.714844 C 602.972656 16.628906 603.75 15.582031 604.578125 14.574219 C 605.40625 13.5625 606.285156 12.597656 607.207031 11.675781 C 608.132812 10.75 609.097656 9.875 610.105469 9.046875 C 611.117188 8.21875 612.164062 7.441406 613.25 6.71875 C 614.335938 5.992188 615.457031 5.320312 616.605469 4.707031 C 617.757812 4.089844 618.9375 3.535156 620.144531 3.035156 C 621.351562 2.535156 622.578125 2.09375 623.828125 1.714844 C 625.078125 1.335938 626.34375 1.019531 627.625 0.765625 C 628.90625 0.511719 630.195312 0.320312 631.496094 0.191406 C 632.796875 0.0625 634.097656 0 635.40625 0 C 636.710938 0 638.015625 0.0625 639.3125 0.191406 C 640.613281 0.320312 641.90625 0.511719 643.183594 0.765625 C 644.464844 1.019531 645.730469 1.335938 646.980469 1.714844 C 648.230469 2.09375 649.460938 2.535156 650.667969 3.035156 C 651.871094 3.535156 653.050781 4.089844 654.203125 4.707031 C 655.355469 5.320312 656.476562 5.992188 657.5625 6.71875 C 658.648438 7.441406 659.695312 8.21875 660.703125 9.046875 C 661.714844 9.875 662.679688 10.75 663.605469 11.675781 C 664.527344 12.597656 665.402344 13.5625 666.230469 14.574219 C 667.058594 15.582031 667.835938 16.628906 668.5625 17.714844 C 669.289062 18.800781 669.960938 19.917969 670.574219 21.070312 C 671.191406 22.21875 671.75 23.398438 672.25 24.605469 C 672.746094 25.8125 673.1875 27.039062 673.566406 28.289062 C 673.945312 29.539062 674.261719 30.800781 674.515625 32.082031 C 674.773438 33.363281 674.964844 34.652344 675.09375 35.953125 C 675.21875 37.25 675.285156 38.554688 675.285156 39.859375 Z M 675.285156 39.859375 "/>
</clipPath>
<linearGradient id="linear1" gradientUnits="userSpaceOnUse" x1="150.199994" y1="109.709999" x2="183.199997" y2="109.709999" gradientTransform="matrix(2.416862,0,0,2.415672,232.51462,0)">
<stop offset="0" style="stop-color:rgb(77.850342%,77.850342%,77.850342%);stop-opacity:1;"/>
<stop offset="0.125" style="stop-color:rgb(78.025818%,78.025818%,78.025818%);stop-opacity:1;"/>
<stop offset="0.25" style="stop-color:rgb(78.375244%,78.375244%,78.375244%);stop-opacity:1;"/>
<stop offset="0.375" style="stop-color:rgb(78.726196%,78.726196%,78.726196%);stop-opacity:1;"/>
<stop offset="0.5" style="stop-color:rgb(79.075623%,79.075623%,79.075623%);stop-opacity:1;"/>
<stop offset="0.625" style="stop-color:rgb(79.426575%,79.426575%,79.426575%);stop-opacity:1;"/>
<stop offset="0.75" style="stop-color:rgb(79.776001%,79.776001%,79.776001%);stop-opacity:1;"/>
<stop offset="0.875" style="stop-color:rgb(80.126953%,80.126953%,80.126953%);stop-opacity:1;"/>
<stop offset="1" style="stop-color:rgb(80.476379%,80.476379%,80.476379%);stop-opacity:1;"/>
</linearGradient>
<clipPath id="clip6">
  <path d="M 661 403 L 705 403 L 705 447 L 661 447 Z M 661 403 "/>
</clipPath>
<clipPath id="clip7">
  <path d="M 704.769531 424.675781 C 704.769531 425.378906 704.734375 426.082031 704.667969 426.78125 C 704.597656 427.484375 704.492188 428.179688 704.355469 428.871094 C 704.21875 429.558594 704.046875 430.242188 703.84375 430.917969 C 703.640625 431.589844 703.402344 432.253906 703.132812 432.902344 C 702.863281 433.554688 702.5625 434.1875 702.230469 434.808594 C 701.898438 435.429688 701.535156 436.035156 701.144531 436.621094 C 700.753906 437.203125 700.332031 437.769531 699.886719 438.3125 C 699.441406 438.859375 698.96875 439.378906 698.46875 439.878906 C 697.972656 440.375 697.449219 440.847656 696.90625 441.292969 C 696.359375 441.742188 695.796875 442.160156 695.210938 442.550781 C 694.625 442.941406 694.019531 443.304688 693.398438 443.636719 C 692.777344 443.96875 692.140625 444.269531 691.492188 444.539062 C 690.839844 444.808594 690.175781 445.042969 689.503906 445.25 C 688.828125 445.453125 688.148438 445.625 687.457031 445.761719 C 686.765625 445.898438 686.070312 446.003906 685.367188 446.070312 C 684.667969 446.140625 683.964844 446.175781 683.257812 446.175781 C 682.554688 446.175781 681.851562 446.140625 681.152344 446.070312 C 680.449219 446.003906 679.753906 445.898438 679.0625 445.761719 C 678.371094 445.625 677.691406 445.453125 677.015625 445.25 C 676.339844 445.042969 675.679688 444.808594 675.027344 444.539062 C 674.378906 444.269531 673.742188 443.96875 673.121094 443.636719 C 672.5 443.304688 671.894531 442.941406 671.308594 442.550781 C 670.722656 442.160156 670.15625 441.742188 669.613281 441.292969 C 669.070312 440.847656 668.546875 440.375 668.050781 439.878906 C 667.550781 439.378906 667.078125 438.859375 666.632812 438.3125 C 666.183594 437.769531 665.765625 437.203125 665.375 436.621094 C 664.984375 436.035156 664.621094 435.429688 664.289062 434.808594 C 663.957031 434.1875 663.65625 433.554688 663.386719 432.902344 C 663.117188 432.253906 662.878906 431.589844 662.675781 430.917969 C 662.472656 430.242188 662.300781 429.558594 662.164062 428.871094 C 662.023438 428.179688 661.921875 427.484375 661.851562 426.78125 C 661.785156 426.082031 661.75 425.378906 661.75 424.675781 C 661.75 423.972656 661.785156 423.269531 661.851562 422.566406 C 661.921875 421.867188 662.023438 421.171875 662.164062 420.480469 C 662.300781 419.789062 662.472656 419.109375 662.675781 418.433594 C 662.878906 417.761719 663.117188 417.097656 663.386719 416.449219 C 663.65625 415.796875 663.957031 415.160156 664.289062 414.539062 C 664.621094 413.917969 664.984375 413.316406 665.375 412.730469 C 665.765625 412.144531 666.183594 411.582031 666.632812 411.035156 C 667.078125 410.492188 667.550781 409.96875 668.050781 409.472656 C 668.546875 408.976562 669.070312 408.503906 669.613281 408.054688 C 670.15625 407.609375 670.722656 407.191406 671.308594 406.800781 C 671.894531 406.40625 672.5 406.046875 673.121094 405.714844 C 673.742188 405.382812 674.378906 405.082031 675.027344 404.8125 C 675.679688 404.542969 676.339844 404.304688 677.015625 404.101562 C 677.691406 403.898438 678.371094 403.726562 679.0625 403.589844 C 679.753906 403.453125 680.449219 403.347656 681.152344 403.277344 C 681.851562 403.210938 682.554688 403.175781 683.257812 403.175781 C 683.964844 403.175781 684.667969 403.210938 685.367188 403.277344 C 686.070312 403.347656 686.765625 403.453125 687.457031 403.589844 C 688.148438 403.726562 688.828125 403.898438 689.503906 404.101562 C 690.175781 404.304688 690.839844 404.542969 691.492188 404.8125 C 692.140625 405.082031 692.777344 405.382812 693.398438 405.714844 C 694.019531 406.046875 694.625 406.40625 695.210938 406.800781 C 695.796875 407.191406 696.359375 407.609375 696.90625 408.054688 C 697.449219 408.503906 697.972656 408.976562 698.46875 409.472656 C 698.96875 409.96875 699.441406 410.492188 699.886719 411.035156 C 700.332031 411.582031 700.753906 412.144531 701.144531 412.730469 C 701.535156 413.316406 701.898438 413.917969 702.230469 414.539062 C 702.5625 415.160156 702.863281 415.796875 703.132812 416.449219 C 703.402344 417.097656 703.640625 417.761719 703.84375 418.433594 C 704.046875 419.109375 704.21875 419.789062 704.355469 420.480469 C 704.492188 421.171875 704.597656 421.867188 704.667969 422.566406 C 704.734375 423.269531 704.769531 423.972656 704.769531 424.675781 Z M 704.769531 424.675781 "/>
</clipPath>
<linearGradient id="linear2" gradientUnits="userSpaceOnUse" x1="177.600007" y1="109.709999" x2="195.400018" y2="109.709999" gradientTransform="matrix(2.416862,0,0,2.415672,232.51462,0)">
<stop offset="0" style="stop-color:rgb(80.177307%,80.177307%,80.177307%);stop-opacity:1;"/>
<stop offset="0.25" style="stop-color:rgb(80.36499%,80.36499%,80.36499%);stop-opacity:1;"/>
<stop offset="0.5" style="stop-color:rgb(80.743408%,80.743408%,80.743408%);stop-opacity:1;"/>
<stop offset="0.75" style="stop-color:rgb(81.121826%,81.121826%,81.121826%);stop-opacity:1;"/>
<stop offset="1" style="stop-color:rgb(81.498718%,81.498718%,81.498718%);stop-opacity:1;"/>
</linearGradient>
<clipPath id="clip8">
  <path d="M 256 272 L 311 272 L 311 326 L 256 326 Z M 256 272 "/>
</clipPath>
<clipPath id="clip9">
  <path d="M 310.097656 299.300781 C 310.097656 300.171875 310.054688 301.039062 309.96875 301.90625 C 309.882812 302.773438 309.753906 303.632812 309.585938 304.484375 C 309.414062 305.339844 309.203125 306.183594 308.949219 307.015625 C 308.699219 307.847656 308.40625 308.667969 308.070312 309.46875 C 307.738281 310.273438 307.367188 311.058594 306.957031 311.828125 C 306.546875 312.59375 306.097656 313.339844 305.617188 314.066406 C 305.132812 314.789062 304.613281 315.484375 304.0625 316.160156 C 303.507812 316.832031 302.925781 317.476562 302.308594 318.089844 C 301.695312 318.707031 301.050781 319.289062 300.375 319.84375 C 299.703125 320.394531 299.003906 320.914062 298.28125 321.394531 C 297.554688 321.878906 296.8125 322.324219 296.042969 322.738281 C 295.273438 323.148438 294.488281 323.519531 293.683594 323.851562 C 292.878906 324.183594 292.0625 324.476562 291.226562 324.730469 C 290.394531 324.984375 289.550781 325.195312 288.695312 325.363281 C 287.84375 325.535156 286.984375 325.660156 286.117188 325.746094 C 285.25 325.832031 284.382812 325.875 283.511719 325.875 C 282.640625 325.875 281.769531 325.832031 280.90625 325.746094 C 280.039062 325.660156 279.179688 325.535156 278.324219 325.363281 C 277.46875 325.195312 276.625 324.984375 275.792969 324.730469 C 274.960938 324.476562 274.140625 324.183594 273.335938 323.851562 C 272.53125 323.519531 271.746094 323.148438 270.976562 322.738281 C 270.210938 322.324219 269.464844 321.878906 268.742188 321.394531 C 268.015625 320.914062 267.316406 320.394531 266.644531 319.84375 C 265.972656 319.289062 265.328125 318.707031 264.710938 318.089844 C 264.097656 317.476562 263.511719 316.832031 262.960938 316.160156 C 262.40625 315.484375 261.890625 314.789062 261.40625 314.066406 C 260.921875 313.339844 260.472656 312.59375 260.0625 311.828125 C 259.652344 311.058594 259.28125 310.273438 258.949219 309.46875 C 258.617188 308.667969 258.324219 307.847656 258.070312 307.015625 C 257.816406 306.183594 257.605469 305.339844 257.4375 304.484375 C 257.265625 303.632812 257.136719 302.773438 257.054688 301.90625 C 256.96875 301.039062 256.925781 300.171875 256.925781 299.300781 C 256.925781 298.429688 256.96875 297.5625 257.054688 296.695312 C 257.136719 295.832031 257.265625 294.972656 257.4375 294.117188 C 257.605469 293.265625 257.816406 292.421875 258.070312 291.589844 C 258.324219 290.753906 258.617188 289.9375 258.949219 289.132812 C 259.28125 288.328125 259.652344 287.542969 260.0625 286.777344 C 260.472656 286.007812 260.921875 285.261719 261.40625 284.539062 C 261.890625 283.816406 262.40625 283.117188 262.960938 282.445312 C 263.511719 281.773438 264.097656 281.128906 264.710938 280.511719 C 265.328125 279.898438 265.972656 279.3125 266.644531 278.761719 C 267.316406 278.207031 268.015625 277.691406 268.742188 277.207031 C 269.464844 276.722656 270.210938 276.277344 270.976562 275.867188 C 271.746094 275.457031 272.53125 275.085938 273.335938 274.753906 C 274.140625 274.417969 274.960938 274.125 275.792969 273.875 C 276.625 273.621094 277.46875 273.410156 278.324219 273.238281 C 279.179688 273.070312 280.039062 272.941406 280.90625 272.855469 C 281.769531 272.773438 282.640625 272.730469 283.511719 272.730469 C 284.382812 272.730469 285.25 272.773438 286.117188 272.855469 C 286.984375 272.941406 287.84375 273.070312 288.695312 273.238281 C 289.550781 273.410156 290.394531 273.621094 291.226562 273.875 C 292.0625 274.125 292.878906 274.417969 293.683594 274.753906 C 294.488281 275.085938 295.273438 275.457031 296.042969 275.867188 C 296.8125 276.277344 297.554688 276.722656 298.28125 277.207031 C 299.003906 277.691406 299.703125 278.207031 300.375 278.761719 C 301.050781 279.3125 301.695312 279.898438 302.308594 280.511719 C 302.925781 281.128906 303.507812 281.773438 304.0625 282.445312 C 304.613281 283.117188 305.132812 283.816406 305.617188 284.539062 C 306.097656 285.261719 306.546875 286.007812 306.957031 286.777344 C 307.367188 287.542969 307.738281 288.328125 308.070312 289.132812 C 308.40625 289.9375 308.699219 290.753906 308.949219 291.589844 C 309.203125 292.421875 309.414062 293.265625 309.585938 294.117188 C 309.753906 294.972656 309.882812 295.832031 309.96875 296.695312 C 310.054688 297.5625 310.097656 298.429688 310.097656 299.300781 Z M 310.097656 299.300781 "/>
</clipPath>
<linearGradient id="linear3" gradientUnits="userSpaceOnUse" x1="10.099996" y1="109.709999" x2="32.099993" y2="109.709999" gradientTransform="matrix(2.416862,0,0,2.415672,232.51462,0)">
<stop offset="0" style="stop-color:rgb(65.956116%,65.956116%,65.956116%);stop-opacity:1;"/>
<stop offset="0.125" style="stop-color:rgb(66.072083%,66.072083%,66.072083%);stop-opacity:1;"/>
<stop offset="0.25" style="stop-color:rgb(66.305542%,66.305542%,66.305542%);stop-opacity:1;"/>
<stop offset="0.375" style="stop-color:rgb(66.539001%,66.539001%,66.539001%);stop-opacity:1;"/>
<stop offset="0.5" style="stop-color:rgb(66.772461%,66.772461%,66.772461%);stop-opacity:1;"/>
<stop offset="0.625" style="stop-color:rgb(67.00592%,67.00592%,67.00592%);stop-opacity:1;"/>
<stop offset="0.75" style="stop-color:rgb(67.23938%,67.23938%,67.23938%);stop-opacity:1;"/>
<stop offset="0.875" style="stop-color:rgb(67.472839%,67.472839%,67.472839%);stop-opacity:1;"/>
<stop offset="1" style="stop-color:rgb(67.706299%,67.706299%,67.706299%);stop-opacity:1;"/>
</linearGradient>
</defs>
<g id="surface1">
<g clip-path="url(#clip1)" clip-rule="nonzero">
<path style=" stroke:none;fill-rule:nonzero;fill:rgb(100%,100%,100%);fill-opacity:1;" d="M 0.269531 0 L 1012.230469 0 L 1012.230469 493.988281 L 0.269531 493.988281 Z M 0.269531 0 "/>
<path style=" stroke:none;fill-rule:nonzero;fill:rgb(100%,100%,100%);fill-opacity:1;" d="M 0.269531 0 L 1012.230469 0 L 1012.230469 487.242188 L 0.269531 487.242188 Z M 0.269531 0 "/>
<path style=" stroke:none;fill-rule:nonzero;fill:rgb(100%,100%,100%);fill-opacity:1;" d="M 0.269531 0 L 1012.230469 0 L 1012.230469 487.242188 L 0.269531 487.242188 Z M 0.269531 0 "/>
</g>
<g clip-path="url(#clip2)" clip-rule="nonzero">
<g clip-path="url(#clip3)" clip-rule="nonzero">
<path style=" stroke:none;fill-rule:nonzero;fill:url(#linear0);" d="M 232.515625 41.550781 L 232.515625 487 L 802.410156 487 L 802.410156 41.550781 Z M 232.515625 41.550781 "/>
</g>
</g>
<g clip-path="url(#clip4)" clip-rule="nonzero">
<g clip-path="url(#clip5)" clip-rule="nonzero">
<path style=" stroke:none;fill-rule:nonzero;fill:url(#linear1);" d="M 595.527344 0 L 595.527344 79.71875 L 675.285156 79.71875 L 675.285156 0 Z M 595.527344 0 "/>
</g>
</g>
<g clip-path="url(#clip6)" clip-rule="nonzero">
<g clip-path="url(#clip7)" clip-rule="nonzero">
<path style=" stroke:none;fill-rule:nonzero;fill:url(#linear2);" d="M 661.75 403.175781 L 661.75 446.175781 L 704.769531 446.175781 L 704.769531 403.175781 Z M 661.75 403.175781 "/>
</g>
</g>
<g clip-path="url(#clip8)" clip-rule="nonzero">
<g clip-path="url(#clip9)" clip-rule="nonzero">
<path style=" stroke:none;fill-rule:nonzero;fill:url(#linear3);" d="M 256.925781 272.730469 L 256.925781 325.875 L 310.097656 325.875 L 310.097656 272.730469 Z M 256.925781 272.730469 "/>
</g>
</g>
</g>
</svg>
